<svg width="169" height="114" viewBox="0 0 169 114" fill="none" xmlns="http://www.w3.org/2000/svg">
<path d="M40.4 103.8H33.9C33.7 92.8999 33 82.5998 32 72.8998H31.9L22 103.8H17.1L7.3 72.8998H7.2C6.5 82.1998 6 92.3999 5.8 103.8H0C0.4 89.9999 1.3 77.0999 2.9 65.0999H10.9L20.3 93.5999H20.4L29.8 65.0999H37.5C39.1 79.1999 40.1 92.0999 40.4 103.8Z" fill="#149BD4"/>
<path d="M68.6 75.1999C66 89.4999 62.5 99.8998 58.2 106.4C54.8 111.4 51.1 113.9 47.1 113.9C46 113.9 44.7 113.6 43.1 112.9V109.4C43.9 109.5 44.8 109.6 45.8 109.6C47.7 109.6 49.2 109.1 50.3 108C51.7 106.7 52.4 105.3 52.4 103.8C52.4 102.7 51.9 100.5 50.8 97.1999L43.7 75.1999H50.1L55.2 91.6999C56.3 95.4999 56.8 98.0999 56.6 99.5999C59.4 92.0999 61.3 83.9999 62.5 75.1999H68.6Z" fill="#149BD4"/>
<path opacity="0.8" d="M154.9 103.8H136.4V65.0999H142.6V98.9998H154.9V103.8Z" fill="#149BD4"/>
<path opacity="0.8" fill-rule="evenodd" clip-rule="evenodd" d="M131.6 104.7L124.5 101.2C125.1 100.7 125.7 100.1 126.3 99.4998C129.3 95.8998 130.8 90.6999 130.8 83.6999C130.8 70.8999 125.8 64.4998 115.7 64.4998C110.8 64.4998 106.9 66.0998 104.2 69.3998C101.2 72.9998 99.7 78.1999 99.7 85.0999C99.7 91.8999 101 96.8999 103.7 100.1C106.1 103 109.8 104.4 114.8 104.4C116.6 104.4 118.3 104.2 119.9 103.7L129.2 109.1L131.6 104.7ZM108.6 95.9998C107 93.4998 106.2 89.3999 106.2 83.7999C106.2 73.9999 109.2 69.1999 115.1 69.1999C118.2 69.1999 120.5 70.3999 121.9 72.6999C123.5 75.1999 124.3 79.1999 124.3 84.7999C124.3 94.5999 121.3 99.5999 115.4 99.5999C112.3 99.4999 110 98.3998 108.6 95.9998Z" fill="#149BD4"/>
<path opacity="0.8" d="M97 93.0999C97 96.3999 95.8 99.0999 93.4 101.2C91 103.3 87.8 104.4 83.7 104.4C79.9 104.4 76.2 103.2 72.7 100.8L74.4 97.4998C77.5 98.9998 80.2 99.7999 82.7 99.7999C85 99.7999 86.9 99.2999 88.2 98.2999C89.5 97.2999 90.3 95.7998 90.3 93.9998C90.3 91.6998 88.7 89.6999 85.8 88.0999C83.1 86.5999 77.7 83.4998 77.7 83.4998C74.8 81.3998 73.3 79.0999 73.3 75.2999C73.3 72.1999 74.4 69.5999 76.6 67.6999C78.8 65.7999 81.6 64.7999 85.1 64.7999C88.7 64.7999 92 65.7999 94.9 67.6999L93.4 70.9998C90.9 69.8998 88.4 69.3998 85.9 69.3998C83.9 69.3998 82.4 69.8999 81.3 70.7999C80.2 71.7999 79.6 72.9998 79.6 74.4998C79.6 76.7998 81.2 78.7998 84.3 80.4998C87.1 81.9998 92.6 85.1999 92.6 85.1999C95.4 86.9999 97 89.2999 97 93.0999Z" fill="#149BD4"/>
<path fill-rule="evenodd" clip-rule="evenodd" d="M162.6 52.0998C158.9 51.9998 156 52.3998 153.5 53.3998C152.8 53.6998 151.7 53.6999 151.6 54.5999C152 54.9999 152 55.5999 152.4 56.0999C153 56.9999 153.9 58.2998 154.8 58.9998C155.8 59.6998 156.8 60.4999 157.8 61.1999C159.6 62.2999 161.7 62.9999 163.5 64.0999C164.5 64.7999 165.6 65.5999 166.6 66.2999C167.1 66.6999 167.4 67.2998 168.1 67.4998V67.3998C167.8 66.9998 167.7 66.3998 167.4 65.8998C166.9 65.3998 166.5 64.9998 166 64.4998C164.6 62.6998 163 61.0999 161.1 59.7999C159.6 58.7999 156.3 57.3999 155.7 55.5999C155.7 55.5999 155.7 55.5998 155.6 55.4998C156.6 55.3998 157.8 54.9999 158.8 54.6999C160.4 54.2999 161.8 54.3999 163.5 53.9999C164.3 53.7999 165 53.5999 165.8 53.2999V52.8998C165 52.0998 164.3 50.8998 163.5 50.0998C161.1 47.9998 158.5 45.9999 155.8 44.2999C154.3 43.3999 152.5 42.7999 150.9 41.9999C150.3 41.6999 149.4 41.5998 149.1 41.0998C148.3 40.0998 147.8 38.6999 147.2 37.4999C145.8 34.8999 144.5 32.0998 143.4 29.3998C142.6 27.5998 142 25.7998 141 24.0998C136.2 16.0998 130.9 11.2999 122.9 6.59985C121.2 5.59985 119.1 5.19985 116.9 4.69985C115.7 4.69985 114.6 4.59985 113.4 4.49985C112.6 4.19985 111.9 3.29985 111.2 2.89985C108.5 1.19985 101.7 -2.40015 99.7 2.39985C98.4 5.39985 101.6 8.39985 102.6 9.99985C103.4 11.0999 104.4 12.2999 105 13.4999C105.3 14.2999 105.4 15.0999 105.8 15.9999C106.5 18.0999 107.2 20.3999 108.2 22.2999C108.7 23.2999 109.3 24.2999 109.9 25.1999C110.3 25.6999 110.9 25.8999 111.1 26.7999C110.4 27.6999 110.4 29.0999 110 30.2999C108.3 35.5999 109 42.0999 111.4 45.9999C112.1 47.1999 113.9 49.6999 116.3 48.7999C118.4 47.9999 117.9 45.2999 118.5 42.9999C118.6 42.3999 118.5 42.0999 118.8 41.6999V41.7999C119.5 43.0999 120.1 44.3999 120.7 45.6999C122.2 47.9999 124.7 50.3999 126.8 51.9999C127.9 52.7999 128.8 54.2999 130.2 54.7999V54.2999H130.1C129.8 53.8999 129.4 53.6998 129 53.3998C128.2 52.5998 127.2 51.4998 126.6 50.5998C124.6 47.9998 122.9 45.0998 121.4 42.0998C120.6 40.5998 120 39.0998 119.4 37.5998C119.1 36.9998 119.1 36.1998 118.7 35.8998C118 36.8998 117 37.7998 116.5 39.0998C115.6 41.0998 115.5 43.5999 115.2 46.1999C115 46.1999 115.1 46.1999 115 46.2999C113.5 45.8999 113 44.3998 112.4 43.0998C111 39.7998 110.8 34.3998 112 30.5998C112.3 29.5998 113.7 26.4998 113.2 25.5998C112.9 24.6998 112 24.1999 111.5 23.4999C110.9 22.5999 110.2 21.4999 109.8 20.4999C108.7 17.8999 108.1 14.9999 106.9 12.3999C106.3 11.1999 105.4 9.89985 104.6 8.79985C103.7 7.49985 102.7 6.59985 102 5.19985C101.8 4.69985 101.4 3.79985 101.8 3.29985C101.9 2.89985 102.1 2.79985 102.5 2.69985C103.1 2.19985 104.8 2.79985 105.4 3.09985C107.1 3.79985 108.6 4.49985 110 5.39985C110.7 5.89985 111.4 6.79985 112.2 6.99985H113.2C114.7 7.29985 116.4 7.09985 117.8 7.49985C120.3 8.29985 122.5 9.49985 124.5 10.6999C130.6 14.5999 135.7 20.0999 139.1 26.6999C139.7 27.7999 139.9 28.7998 140.4 29.8998C141.4 32.1998 142.6 34.4999 143.6 36.7999C144.6 38.9999 145.5 41.1998 146.9 43.0998C147.6 44.0998 150.4 44.5998 151.7 45.0998C152.6 45.4998 154.1 45.8998 154.9 46.3998C156.5 47.3998 158.1 48.4998 159.6 49.5998C160.2 49.9998 162.5 51.0998 162.6 52.0998Z" fill="#149BD5"/>
<path opacity="0.8" d="M167.1 103.8H168.1V99.0999H166.6L165.4 102.3L164.1 99.0999H162.7V103.8H163.6V100.2H163.7L165.1 103.8H165.8L167.1 100.2V103.8ZM159.3 103.8H160.3V99.8998H161.6V99.0999H157.8V99.8998H159.2V103.8H159.3Z" fill="#043F58"/>
</svg>
